<svg width="66" height="66" viewBox="0 0 66 66" fill="none" xmlns="http://www.w3.org/2000/svg">
<circle cx="33" cy="33" r="33" fill="white"/>
<circle cx="33" cy="33" r="27" fill="#9070CF"/>
<path d="M29.0193 35.7899V25.5899L36.9455 21.014C41.3372 18.4782 49.1997 24.7328 45.8989 30.4561" stroke="white" stroke-width="2" stroke-linejoin="round"/>
<path d="M29.0193 30.8324L37.8522 25.7324L45.7785 30.3083C50.1701 32.8441 48.6826 42.782 42.0739 42.782" stroke="white" stroke-width="2" stroke-linejoin="round"/>
<path d="M33.3116 28.3535L42.1445 33.4535V42.6123C42.1445 47.6839 32.7945 51.3673 29.4937 45.6439" stroke="white" stroke-width="2" stroke-linejoin="round"/>
<path d="M37.6043 31.0176V41.0334L29.678 45.6092C25.2863 48.1451 17.4238 41.8905 20.7247 36.1672" stroke="white" stroke-width="2" stroke-linejoin="round"/>
<path d="M37.6041 35.7914L28.7712 40.8914L20.8449 36.3155C16.4462 33.7726 17.9337 23.8418 24.5424 23.8418" stroke="white" stroke-width="2" stroke-linejoin="round"/>
<path d="M33.3117 38.2705L24.4788 33.1705V24.0117C24.4788 18.94 33.8288 15.2567 37.1296 20.98" stroke="white" stroke-width="2" stroke-linejoin="round"/>
</svg>
