<svg width="30" height="30" viewBox="0 0 30 30" fill="none" xmlns="http://www.w3.org/2000/svg">
<path fill-rule="evenodd" clip-rule="evenodd" d="M14.9693 6C16.7906 5.99997 18.5407 6.70734 19.8504 7.97289C21.1601 9.23845 21.9271 10.9632 21.9896 12.7834L21.9936 13.0243V16.8013L23.8219 20.458C23.9017 20.6175 23.9416 20.794 23.9383 20.9724C23.9349 21.1507 23.8884 21.3256 23.8027 21.4821C23.717 21.6385 23.5946 21.7719 23.4461 21.8707C23.2976 21.9695 23.1273 22.0308 22.9499 22.0495L22.8345 22.0555H7.10414C6.92569 22.0555 6.74988 22.0123 6.59179 21.9295C6.4337 21.8468 6.29803 21.7269 6.19642 21.5802C6.09481 21.4335 6.03028 21.2643 6.00836 21.0872C5.98644 20.9101 6.00779 20.7304 6.07057 20.5633L6.11673 20.458L7.94505 16.8013V13.0243C7.94505 11.1613 8.6851 9.37467 10.0024 8.05736C11.3197 6.74005 13.1064 6 14.9693 6ZM14.9693 8.00693C13.6764 8.00701 12.4334 8.5062 11.4996 9.40041C10.5657 10.2946 10.0131 11.5148 9.957 12.8065L9.95198 13.0243V16.8013C9.95199 17.0502 9.90571 17.2969 9.81551 17.5288L9.74025 17.6994L8.56619 20.0485H21.3734L20.1994 17.6984C20.088 17.4759 20.0189 17.2347 19.9957 16.987L19.9867 16.8013V13.0243C19.9867 11.6936 19.458 10.4174 18.5171 9.47648C17.5762 8.53555 16.3 8.00693 14.9693 8.00693Z" fill="black"/>
<path d="M12.9629 24.0605C14.4681 24.5623 15.4716 24.5623 16.9768 24.0605" stroke="black" stroke-width="2" stroke-linecap="round"/>
<path d="M15 5L15 6.00347" stroke="black" stroke-width="2" stroke-linecap="round"/>
</svg>
