<svg width="35" height="35" viewBox="0 0 35 35" fill="#000" xmlns="http://www.w3.org/2000/svg">
<mask id="mask0_807_5472" style="mask-type:luminance" maskUnits="userSpaceOnUse" x="0" y="0" width="35" height="35">
<path d="M0 0H35V35H0V0Z" fill="white"/>
</mask>
<g mask="url(#mask0_807_5472)">
<path fill-rule="evenodd" clip-rule="evenodd" d="M17.5 4.75903C18.0523 4.75903 18.5 4.31132 18.5 3.75903V1.02466C18.5 0.472373 18.0523 0.0246582 17.5 0.0246582C16.9477 0.0246582 16.5 0.472373 16.5 1.02466V3.75903C16.5 4.31132 16.9477 4.75903 17.5 4.75903Z" />
<path fill-rule="evenodd" clip-rule="evenodd" d="M21.1017 4.62489C21.58 4.90103 22.1916 4.73716 22.4678 4.25887L23.8349 1.89083C24.1111 1.41254 23.9472 0.800946 23.4689 0.524804C22.9906 0.248661 22.379 0.412537 22.1029 0.890829L20.7357 3.25887C20.4596 3.73716 20.6234 4.34875 21.1017 4.62489Z" />
<path fill-rule="evenodd" clip-rule="evenodd" d="M13.8986 4.62489C14.3769 4.34875 14.5408 3.73716 14.2646 3.25887L12.8974 0.890829C12.6213 0.412537 12.0097 0.248661 11.5314 0.524804C11.0531 0.800946 10.8892 1.41254 11.1654 1.89083L12.5326 4.25887C12.8087 4.73716 13.4203 4.90103 13.8986 4.62489Z" />
<path fill-rule="evenodd" clip-rule="evenodd" d="M18.8399 16.6236C19.0534 21.1578 23.3212 24.3917 27.7442 23.3706C32.1671 22.3495 34.5854 17.5719 32.7895 13.403L29.717 6.27052C29.5258 5.82667 29.0446 5.58307 28.5737 5.69178L19.2487 7.84462C18.7778 7.95334 18.452 8.38326 18.4748 8.866L18.8399 16.6236L18.8399 16.6236ZM20.8376 16.5295C20.8376 16.5295 20.8376 16.5295 20.8376 16.5295L20.5118 9.60562L28.2104 7.82826L30.9527 14.1943C32.2549 17.2172 30.5013 20.6814 27.2943 21.4218L27.2942 21.4218C24.0871 22.1623 20.9925 19.8174 20.8376 16.5295Z" />
<path fill-rule="evenodd" clip-rule="evenodd" d="M29.2805 30.0291C29.8186 29.9048 30.1542 29.3679 30.0299 28.8298L28.4922 22.169C28.3679 21.6309 27.831 21.2954 27.2928 21.4196C26.7547 21.5438 26.4192 22.0808 26.5434 22.6189L28.0812 29.2797C28.2054 29.8178 28.7424 30.1533 29.2805 30.0291Z" />
<path fill-rule="evenodd" clip-rule="evenodd" d="M25.1693 34.5553C25.4042 34.8845 25.8143 35.0399 26.2084 34.9489L34.2012 33.1036C34.5953 33.0127 34.8958 32.6932 34.9625 32.2943C35.0293 31.8954 34.8492 31.4956 34.5062 31.2812L29.5871 28.2074C29.1187 27.9148 28.5018 28.0572 28.2091 28.5256L25.1354 33.4446C24.921 33.7876 24.9344 34.226 25.1693 34.5553ZM28.1108 32.4571L29.3753 30.4335L31.399 31.698L28.1108 32.4571Z" />
<path fill-rule="evenodd" clip-rule="evenodd" d="M25.1102 13.7053C27.2724 14.5859 29.7145 14.458 31.7729 13.3562C32.2598 13.0955 32.4432 12.4895 32.1826 12.0026C31.9219 11.5157 31.3159 11.3322 30.829 11.5929C29.2954 12.4139 27.4757 12.5092 25.8645 11.8531C23.7022 10.9725 21.2602 11.1005 19.2019 12.2022C18.7149 12.4629 18.5315 13.0689 18.7921 13.5558C19.0528 14.0427 19.6588 14.2262 20.1457 13.9655C21.6794 13.1446 23.499 13.0492 25.1102 13.7053Z" />
<path fill-rule="evenodd" clip-rule="evenodd" d="M14.1642 16.5295C14.0094 19.8174 10.9148 22.1623 7.70763 21.4218L7.70762 21.4218C4.50054 20.6814 2.747 17.2172 4.04919 14.1943L3.13078 13.7986L4.04919 14.1943L6.79149 7.82826L14.4901 9.60562L14.1642 16.5295C14.1642 16.5295 14.1642 16.5295 14.1642 16.5295ZM7.25771 23.3706C11.6807 24.3917 15.9485 21.1578 16.162 16.6236L16.162 16.6236L16.5271 8.866C16.5498 8.38326 16.2241 7.95334 15.7532 7.84462L6.42821 5.69178C5.95731 5.58307 5.47605 5.82667 5.28485 6.27052L2.21237 13.403C0.416507 17.5719 2.83479 22.3495 7.25771 23.3706Z" />
<path fill-rule="evenodd" clip-rule="evenodd" d="M5.72034 30.0291C6.25847 30.1533 6.79542 29.8178 6.91966 29.2797L8.4574 22.6189C8.58164 22.0808 8.24611 21.5438 7.70798 21.4196C7.16985 21.2954 6.6329 21.6309 6.50866 22.169L4.97092 28.8298C4.84668 29.3679 5.18221 29.9048 5.72034 30.0291Z" />
<path fill-rule="evenodd" clip-rule="evenodd" d="M9.8324 34.5553C10.0673 34.226 10.0807 33.7876 9.86633 33.4446L6.79255 28.5256C6.49988 28.0572 5.88295 27.9148 5.41458 28.2074L0.49551 31.2812C0.152507 31.4956 -0.0276117 31.8954 0.0391439 32.2943C0.1059 32.6932 0.406383 33.0127 0.800479 33.1036L8.79333 34.9489C9.18743 35.0399 9.59752 34.8845 9.8324 34.5553ZM3.60272 31.698L5.62637 30.4335L6.89089 32.4571L3.60272 31.698Z" />
<path fill-rule="evenodd" clip-rule="evenodd" d="M9.1366 11.8531C7.52542 12.5092 5.70574 12.4139 4.17209 11.5929C3.68517 11.3322 3.07916 11.5157 2.81852 12.0026C2.55787 12.4895 2.7413 13.0955 3.22821 13.3562C5.28656 14.458 7.72869 14.5859 9.89094 13.7053C11.5021 13.0492 13.3217 13.1446 14.8554 13.9655C15.3423 14.2262 15.9483 14.0427 16.209 13.5558C16.4696 13.0689 16.2862 12.4629 15.7992 12.2022C13.7409 11.1005 11.2989 10.9725 9.1366 11.8531Z" />
</g>
</svg>
