<svg width="24" height="24" viewBox="0 0 24 24" fill="none" xmlns="http://www.w3.org/2000/svg">
<path fill-rule="evenodd" clip-rule="evenodd" d="M5 2C4.20435 2 3.44129 2.31607 2.87868 2.87868C2.31607 3.44129 2 4.20435 2 5V19C2 19.7956 2.31607 20.5587 2.87868 21.1213C3.44129 21.6839 4.20435 22 5 22H14V17C14 16.2044 14.3161 15.4413 14.8787 14.8787C15.4413 14.3161 16.2044 14 17 14H22V5C22 4.20435 21.6839 3.44129 21.1213 2.87868C20.5587 2.31607 19.7956 2 19 2H5ZM17.293 21.121C16.9335 21.4804 16.4886 21.7427 16 21.883V17C16 16.7348 16.1054 16.4804 16.2929 16.2929C16.4804 16.1054 16.7348 16 17 16H21.883C21.7427 16.4886 21.4804 16.9335 21.121 17.293L17.293 21.121ZM7 6C6.73478 6 6.48043 6.10536 6.29289 6.29289C6.10536 6.48043 6 6.73478 6 7C6 7.26522 6.10536 7.51957 6.29289 7.70711C6.48043 7.89464 6.73478 8 7 8H17C17.2652 8 17.5196 7.89464 17.7071 7.70711C17.8946 7.51957 18 7.26522 18 7C18 6.73478 17.8946 6.48043 17.7071 6.29289C17.5196 6.10536 17.2652 6 17 6H7ZM7 10C6.73478 10 6.48043 10.1054 6.29289 10.2929C6.10536 10.4804 6 10.7348 6 11C6 11.2652 6.10536 11.5196 6.29289 11.7071C6.48043 11.8946 6.73478 12 7 12H17C17.2652 12 17.5196 11.8946 17.7071 11.7071C17.8946 11.5196 18 11.2652 18 11C18 10.7348 17.8946 10.4804 17.7071 10.2929C17.5196 10.1054 17.2652 10 17 10H7ZM7 14C6.73478 14 6.48043 14.1054 6.29289 14.2929C6.10536 14.4804 6 14.7348 6 15C6 15.2652 6.10536 15.5196 6.29289 15.7071C6.48043 15.8946 6.73478 16 7 16H11C11.2652 16 11.5196 15.8946 11.7071 15.7071C11.8946 15.5196 12 15.2652 12 15C12 14.7348 11.8946 14.4804 11.7071 14.2929C11.5196 14.1054 11.2652 14 11 14H7Z" fill="#353D4A"/>
</svg>
