<svg width="35" height="35" viewBox="0 0 35 35" fill="#000" xmlns="http://www.w3.org/2000/svg">
<g clip-path="url(#clip0_792_2145)">
<path d="M30.2062 14.4221H28.2288V13.3966C28.2288 12.8303 27.7696 12.3711 27.2033 12.3711H6.69286C6.1265 12.3711 5.66733 12.8303 5.66733 13.3966V19.9016C5.66733 21.558 5.93927 23.2407 6.45354 24.7677C6.99617 26.3786 7.98007 27.7773 9.31458 28.8478H4.64174C4.07538 28.8478 3.61621 29.3069 3.61621 29.8733C3.61621 32.7006 5.91644 35.0009 8.74385 35.0009H25.1521C27.9795 35.0009 30.2798 32.7007 30.2798 29.8733C30.2798 29.3069 29.8206 28.8478 29.2543 28.8478H24.5814C25.3205 28.2548 25.9515 27.561 26.4598 26.7862C30.2101 26.648 32.0743 24.9906 33.7626 21.9694C35.6198 18.6456 34.0847 14.4221 30.2062 14.4221ZM28.053 30.8987C27.6298 32.0925 26.4893 32.9498 25.1522 32.9498H8.74385C7.40688 32.9498 6.26623 32.0925 5.84302 30.8987C8.06668 30.8987 26.959 30.8987 28.053 30.8987ZM26.1777 19.9016C26.1777 21.338 25.9429 22.7943 25.4987 24.1129C24.5448 26.9447 21.8266 28.8473 18.7344 28.8478H15.1614C12.0693 28.8474 9.35102 26.9447 8.3972 24.1129C7.953 22.7943 7.71825 21.3381 7.71825 19.9016V14.4221H26.1776L26.1777 19.9016ZM31.9721 20.9688C30.8024 23.0621 29.9597 24.2928 27.4834 24.6416C27.9708 23.1482 28.2287 21.5126 28.2287 19.9016V16.4731H30.2062C32.5184 16.4731 33.0652 19.0128 31.9721 20.9688Z"/>
<path d="M15.6921 6.1177C16.6654 5.46883 17.2464 4.37037 17.2463 3.1792C17.2463 1.98804 16.6653 0.821215 15.692 0.172348C15.2209 -0.141832 14.5841 -0.0144786 14.2698 0.456791C13.9557 0.92806 14.0831 1.56476 14.5543 1.87894C14.9616 2.15053 15.1952 2.66794 15.1952 3.1792C15.1954 3.6906 14.9618 4.13958 14.5544 4.41118C13.5811 5.06004 13 6.14573 13 7.31549C13 8.48519 13.5811 9.57094 14.5544 10.2197C15.0235 10.5326 15.6609 10.4086 15.9765 9.9353C16.2907 9.46403 16.1633 8.82733 15.692 8.51315C15.2846 8.24156 15.051 7.80501 15.051 7.31542C15.0511 6.82583 15.2846 6.38936 15.6921 6.1177Z" />
<path d="M20.82 6.1177C21.7933 5.46883 22.3743 4.37037 22.3743 3.1792C22.3743 1.98804 21.7932 0.821215 20.8199 0.172348C20.3488 -0.141832 19.712 -0.0144786 19.3978 0.456791C19.0836 0.92806 19.211 1.56476 19.6822 1.87894C20.0896 2.15053 20.3232 2.66794 20.3232 3.1792C20.3233 3.6906 20.0897 4.13958 19.6823 4.41118C18.709 5.06004 18.1279 6.14573 18.1279 7.31549C18.1279 8.48519 18.709 9.57094 19.6823 10.2197C20.1514 10.5326 20.7888 10.4086 21.1044 9.9353C21.4186 9.46403 21.2912 8.82733 20.8199 8.51315C20.4126 8.24156 20.1789 7.80501 20.1789 7.31542C20.179 6.82583 20.4126 6.38936 20.82 6.1177Z" />
</g>
<defs>
<clipPath id="clip0_792_2145">
<rect width="35" height="35" fill="white"/>
</clipPath>
</defs>
</svg>
