<svg width="35" height="35" viewBox="0 0 35 35" fill="#000" xmlns="http://www.w3.org/2000/svg">
<g clip-path="url(#clip0_1_185)">
<path fill-rule="evenodd" clip-rule="evenodd" d="M0.367188 33.6328C0.367188 33.0805 0.814903 32.6328 1.36719 32.6328H6.83594C7.38822 32.6328 7.83594 33.0805 7.83594 33.6328C7.83594 34.1851 7.38822 34.6328 6.83594 34.6328H1.36719C0.814903 34.6328 0.367188 34.1851 0.367188 33.6328Z" />
<path fill-rule="evenodd" clip-rule="evenodd" d="M27.1641 33.6328C27.1641 33.0805 27.6118 32.6328 28.1641 32.6328H33.6328C34.1851 32.6328 34.6328 33.0805 34.6328 33.6328C34.6328 34.1851 34.1851 34.6328 33.6328 34.6328H28.1641C27.6118 34.6328 27.1641 34.1851 27.1641 33.6328Z" />
<path fill-rule="evenodd" clip-rule="evenodd" d="M5.5625 1.36719C5.5625 0.814903 6.01022 0.367188 6.5625 0.367188H28.4375C28.9898 0.367188 29.4375 0.814903 29.4375 1.36719V15.0391C29.4375 15.5913 28.9898 16.0391 28.4375 16.0391H6.5625C6.01022 16.0391 5.5625 15.5913 5.5625 15.0391V1.36719ZM7.5625 2.36719V14.0391H27.4375V2.36719H7.5625Z" />
<path fill-rule="evenodd" clip-rule="evenodd" d="M4.10156 20.1406C3.14369 20.1406 2.36719 20.9171 2.36719 21.875C2.36719 22.8329 3.14369 23.6094 4.10156 23.6094C5.05943 23.6094 5.83594 22.8329 5.83594 21.875C5.83594 20.9171 5.05943 20.1406 4.10156 20.1406ZM0.367188 21.875C0.367188 19.8126 2.03912 18.1406 4.10156 18.1406C6.164 18.1406 7.83594 19.8126 7.83594 21.875C7.83594 23.9374 6.164 25.6094 4.10156 25.6094C2.03912 25.6094 0.367188 23.9374 0.367188 21.875Z" />
<path fill-rule="evenodd" clip-rule="evenodd" d="M30.8984 20.1406C29.9406 20.1406 29.1641 20.9171 29.1641 21.875C29.1641 22.8329 29.9406 23.6094 30.8984 23.6094C31.8563 23.6094 32.6328 22.8329 32.6328 21.875C32.6328 20.9171 31.8563 20.1406 30.8984 20.1406ZM27.1641 21.875C27.1641 19.8126 28.836 18.1406 30.8984 18.1406C32.9609 18.1406 34.6328 19.8126 34.6328 21.875C34.6328 23.9374 32.9609 25.6094 30.8984 25.6094C28.836 25.6094 27.1641 23.9374 27.1641 21.875Z" />
<path fill-rule="evenodd" clip-rule="evenodd" d="M4.10156 23.6094C4.65385 23.6094 5.10156 24.0571 5.10156 24.6094V33.6328C5.10156 34.1851 4.65385 34.6328 4.10156 34.6328C3.54928 34.6328 3.10156 34.1851 3.10156 33.6328V24.6094C3.10156 24.0571 3.54928 23.6094 4.10156 23.6094Z" />
<path fill-rule="evenodd" clip-rule="evenodd" d="M30.8984 23.6094C31.4507 23.6094 31.8984 24.0571 31.8984 24.6094V33.6328C31.8984 34.1851 31.4507 34.6328 30.8984 34.6328C30.3462 34.6328 29.8984 34.1851 29.8984 33.6328V24.6094C29.8984 24.0571 30.3462 23.6094 30.8984 23.6094Z" />
<path fill-rule="evenodd" clip-rule="evenodd" d="M11.3241 6.12883C11.7147 5.73831 12.3478 5.73831 12.7384 6.12883L20.9415 14.332C21.332 14.7225 21.332 15.3556 20.9415 15.7462C20.551 16.1367 19.9178 16.1367 19.5273 15.7462L12.0312 8.25015L7.26961 13.0118C6.87908 13.4023 6.24592 13.4023 5.85539 13.0118C5.46487 12.6213 5.46487 11.9881 5.85539 11.5976L11.3241 6.12883Z" />
<path fill-rule="evenodd" clip-rule="evenodd" d="M20.8945 7.49602C21.285 7.10549 21.9181 7.10549 22.3087 7.49602L29.1446 14.332C29.5351 14.7225 29.5351 15.3556 29.1446 15.7462C28.7541 16.1367 28.1209 16.1367 27.7304 15.7462L21.6016 9.61734L18.2071 13.0118C17.8166 13.4023 17.1834 13.4023 16.7929 13.0118C16.4024 12.6213 16.4024 11.9881 16.7929 11.5976L20.8945 7.49602Z" />
<path fill-rule="evenodd" clip-rule="evenodd" d="M5.39412 23.0371C5.71684 22.5889 6.34178 22.4872 6.78997 22.8099C13.3338 27.5217 21.6661 27.5217 28.2099 22.8099C28.6581 22.4872 29.283 22.5889 29.6058 23.0371C29.9285 23.4853 29.8268 24.1102 29.3786 24.4329C22.1367 29.6474 12.8632 29.6474 5.62131 24.4329C5.17312 24.1102 5.07141 23.4853 5.39412 23.0371Z" />
</g>
<defs>
<clipPath id="clip0_1_185">
<rect width="35" height="35" fill="white"/>
</clipPath>
</defs>
</svg>
