<svg width="24" height="24" viewBox="0 0 24 24"  fill="#212529" xmlns="http://www.w3.org/2000/svg">
<path fill-rule="evenodd" clip-rule="evenodd" d="M5.46971 5.46963C5.76263 5.17676 6.2375 5.1768 6.53037 5.46971L12.2421 11.1823L17.9557 5.46963C18.2486 5.17676 18.7235 5.1768 19.0164 5.46971C19.3092 5.76263 19.3092 6.2375 19.0163 6.53037L13.3032 12.2425L19.0163 17.9557C19.3092 18.2486 19.3092 18.7234 19.0163 19.0163C18.7234 19.3092 18.2486 19.3092 17.9557 19.0163L12.243 13.3037L6.53033 19.0163C6.23744 19.3092 5.76256 19.3092 5.46967 19.0163C5.17678 18.7234 5.17678 18.2486 5.46967 17.9557L11.1819 12.2435L5.46963 6.53029C5.17676 6.23737 5.1768 5.7625 5.46971 5.46963Z"/>
</svg>
