<svg width="24" height="24" viewBox="0 0 24 24" fill="none" xmlns="http://www.w3.org/2000/svg">
<g id="community">
<path id="Vector" d="M21 15V5C21 4.46957 20.7893 3.96086 20.4142 3.58579C20.0391 3.21071 19.5304 3 19 3H5C4.46957 3 3.96086 3.21071 3.58579 3.58579C3.21071 3.96086 3 4.46957 3 5V19C3 19.5304 3.21071 20.0391 3.58579 20.4142C3.96086 20.7893 4.46957 21 5 21H15M21 15V15.172C20.9999 15.7024 20.7891 16.211 20.414 16.586L16.586 20.414C16.211 20.7891 15.7024 20.9999 15.172 21H15M21 15H17C16.4696 15 15.9609 15.2107 15.5858 15.5858C15.2107 15.9609 15 16.4696 15 17V21M7 7H17M7 11H17M7 15H11" stroke="#757575" stroke-width="2" stroke-linecap="round" stroke-linejoin="round"/>
</g>
</svg>
