<svg width="35" height="36" viewBox="0 0 35 36" fill="#000" xmlns="http://www.w3.org/2000/svg">
<mask id="mask0_807_5459" style="mask-type:luminance" maskUnits="userSpaceOnUse" x="0" y="0" width="35" height="36">
<path d="M0 0.5H35V35.5H0V0.5Z" fill="white"/>
</mask>
<g mask="url(#mask0_807_5459)">
<path fill-rule="evenodd" clip-rule="evenodd" d="M8.39103 33.4383C7.83049 33.5885 7.25432 33.2558 7.10412 32.6952L2.06173 13.8766C1.91151 13.3161 2.24416 12.7399 2.80466 12.5897L14.0298 9.58199C14.5904 9.43179 15.1665 9.76446 15.3167 10.325L20.3592 29.1436C20.5094 29.7041 20.1767 30.2803 19.6161 30.4305L8.39103 33.4383C8.39102 33.4383 8.39104 33.4383 8.39103 33.4383ZM5.17227 33.2129C5.60832 34.8403 7.28115 35.8062 8.90866 35.3702L20.1337 32.3623C20.1338 32.3623 20.1337 32.3623 20.1337 32.3623C21.7612 31.9263 22.7271 30.2534 22.291 28.626L17.2486 9.80737C16.8125 8.17984 15.1396 7.21408 13.5122 7.65013L2.28702 10.6579C0.659629 11.0939 -0.306267 12.7668 0.129876 14.3943C0.12988 14.3943 0.129872 14.3943 0.129876 14.3943L5.17227 33.2129Z" />
<path fill-rule="evenodd" clip-rule="evenodd" d="M12.6197 26.7706C12.9527 26.6814 13.2163 26.4268 13.3171 26.0971L14.8495 21.0864C14.9614 20.7207 14.8549 20.3233 14.5752 20.0625L10.7427 16.4893C10.4905 16.2542 10.135 16.1655 9.80194 16.2548C9.4689 16.344 9.20532 16.5985 9.10449 16.9283L7.57207 21.939C7.46024 22.3047 7.56673 22.7021 7.84642 22.9629L11.6789 26.5361C11.9311 26.7712 12.2866 26.8598 12.6197 26.7706ZM9.66741 21.9262L10.5491 19.0432L12.7542 21.0991L11.8725 23.9821L9.66741 21.9262Z" />
<path fill-rule="evenodd" clip-rule="evenodd" d="M6.28996 17.6749C6.82343 17.532 7.14002 16.9836 6.99709 16.4502L6.5548 14.7994C6.41187 14.266 5.86354 13.9494 5.33007 14.0923C4.7966 14.2352 4.48001 14.7836 4.62294 15.317L5.06523 16.9678C5.20816 17.5013 5.75649 17.8178 6.28996 17.6749Z" />
<path fill-rule="evenodd" clip-rule="evenodd" d="M17.0927 28.9327C17.6262 28.7898 17.9428 28.2415 17.7998 27.708L17.3575 26.0572C17.2146 25.5238 16.6663 25.2072 16.1328 25.3501C15.5993 25.4931 15.2827 26.0414 15.4257 26.5749L15.868 28.2256C16.0109 28.7591 16.5592 29.0757 17.0927 28.9327Z" />
<path fill-rule="evenodd" clip-rule="evenodd" d="M8.39103 33.4383C7.83049 33.5885 7.25432 33.2558 7.10412 32.6952L2.06173 13.8766C1.91151 13.3161 2.24416 12.7399 2.80466 12.5897L14.0298 9.58199C14.5904 9.43179 15.1665 9.76446 15.3167 10.325L20.3592 29.1436C20.5094 29.7041 20.1767 30.2803 19.6161 30.4305L8.39103 33.4383C8.39102 33.4383 8.39104 33.4383 8.39103 33.4383ZM5.17227 33.2129C5.60832 34.8403 7.28115 35.8062 8.90866 35.3702L20.1337 32.3623C20.1338 32.3623 20.1337 32.3623 20.1337 32.3623C21.7612 31.9263 22.7271 30.2534 22.291 28.626L17.2486 9.80737C16.8125 8.17984 15.1396 7.21408 13.5122 7.65013L2.28702 10.6579C0.659629 11.0939 -0.306267 12.7668 0.129876 14.3943C0.12988 14.3943 0.129872 14.3943 0.129876 14.3943L5.17227 33.2129Z" />
<path fill-rule="evenodd" clip-rule="evenodd" d="M12.6197 26.7706C12.9527 26.6814 13.2163 26.4268 13.3171 26.0971L14.8495 21.0864C14.9614 20.7207 14.8549 20.3233 14.5752 20.0625L10.7427 16.4893C10.4905 16.2542 10.135 16.1655 9.80194 16.2548C9.4689 16.344 9.20532 16.5985 9.10449 16.9283L7.57207 21.939C7.46024 22.3047 7.56673 22.7021 7.84642 22.9629L11.6789 26.5361C11.9311 26.7712 12.2866 26.8598 12.6197 26.7706ZM9.66741 21.9262L10.5491 19.0432L12.7542 21.0991L11.8725 23.9821L9.66741 21.9262Z" />
<path fill-rule="evenodd" clip-rule="evenodd" d="M6.28996 17.6749C6.82343 17.532 7.14002 16.9836 6.99709 16.4502L6.5548 14.7994C6.41187 14.266 5.86354 13.9494 5.33007 14.0923C4.7966 14.2352 4.48001 14.7836 4.62294 15.317L5.06523 16.9678C5.20816 17.5013 5.75649 17.8178 6.28996 17.6749Z" />
<path fill-rule="evenodd" clip-rule="evenodd" d="M17.0927 28.9327C17.6262 28.7898 17.9428 28.2415 17.7998 27.708L17.3575 26.0572C17.2146 25.5238 16.6663 25.2072 16.1328 25.3501C15.5993 25.4931 15.2827 26.0414 15.4257 26.5749L15.868 28.2256C16.0109 28.7591 16.5592 29.0757 17.0927 28.9327Z" />
<path fill-rule="evenodd" clip-rule="evenodd" d="M20.3698 29.1896C20.4715 29.6471 20.8773 29.9727 21.346 29.9727H22.9858C24.6235 29.9727 25.9512 28.645 25.9512 27.0073V7.354C25.9512 5.7164 24.6236 4.38867 22.9858 4.38867H11.1938C9.55613 4.38867 8.22852 5.7164 8.22852 7.354V9.83428C8.22852 10.3866 8.67623 10.8343 9.22852 10.8343C9.7808 10.8343 10.2285 10.3866 10.2285 9.83428V7.354C10.2285 6.82092 10.6607 6.38867 11.1938 6.38867H22.9858C23.5189 6.38867 23.9512 6.82092 23.9512 7.354V27.0073C23.9512 27.5404 23.519 27.9727 22.9858 27.9727H21.7329C21.531 27.8823 21.298 27.8581 21.0676 27.9195C20.5339 28.0617 20.2166 28.6096 20.3588 29.1433C20.3615 29.1531 20.3648 29.1669 20.3698 29.1896Z" />
<path fill-rule="evenodd" clip-rule="evenodd" d="M27.854 25.7762C27.716 26.2912 27.1867 26.5968 26.6717 26.4588L25.4228 26.1242C25.2822 26.0487 25.1214 26.0059 24.9506 26.0059C24.4035 26.0059 23.9591 26.4452 23.9507 26.9903L23.9506 26.9945L23.95 27.0175C23.943 27.4757 24.2484 27.8801 24.6911 27.9987L26.154 28.3906C26.154 28.3906 26.154 28.3906 26.154 28.3906C27.736 28.8145 29.3619 27.8757 29.7858 26.2939L34.8725 7.31026C35.2964 5.72834 34.3576 4.10229 32.7757 3.67845C32.7757 3.67844 32.7757 3.67845 32.7757 3.67845L21.3855 0.626406C19.8036 0.202597 18.1776 1.14137 17.7537 2.72323L17.1093 5.12843C16.9663 5.6619 17.2829 6.21023 17.8164 6.35316C18.3499 6.4961 18.8982 6.17951 19.0411 5.64604L19.6855 3.24092C19.6855 3.24091 19.6855 3.24094 19.6855 3.24092C19.8236 2.72596 20.3529 2.42031 20.8679 2.55826C20.8679 2.55826 20.8679 2.55825 20.8679 2.55826L32.258 5.6103C32.773 5.74825 33.0786 6.27756 32.9406 6.79261L27.854 25.7762C27.854 25.7762 27.854 25.7762 27.854 25.7762Z" />
</g>
</svg>
