<svg width="24" height="24" viewBox="0 0 24 24" fill="#000" xmlns="http://www.w3.org/2000/svg">
<path d="M11.5713 3.27946C11.7466 2.90685 12.2534 2.90685 12.4287 3.27946L14.8395 8.40157C14.9091 8.54953 15.0438 8.65209 15.1995 8.67582L20.5901 9.49719C20.9823 9.55694 21.1389 10.0623 20.8551 10.3523L16.9544 14.3393C16.8417 14.4545 16.7903 14.6204 16.8169 14.7831L17.7377 20.4128C17.8047 20.8223 17.3948 21.1347 17.044 20.9413L12.2225 18.2833C12.0832 18.2065 11.9168 18.2065 11.7775 18.2833L6.95598 20.9413C6.60523 21.1347 6.19529 20.8223 6.26228 20.4128L7.18311 14.7831C7.20971 14.6204 7.15829 14.4545 7.04561 14.3393L3.1449 10.3523C2.86114 10.0623 3.01773 9.55694 3.40988 9.49719L8.80052 8.67582C8.95624 8.65209 9.09086 8.54953 9.1605 8.40157L11.5713 3.27946Z"/>
</svg>
