<svg width="24" height="24" viewBox="0 0 24 24" fill="none" xmlns="http://www.w3.org/2000/svg">
<g id="icon/home">
<path id="Subtract" fill-rule="evenodd" clip-rule="evenodd" d="M12 1C11.5192 1 11.0513 1.1572 10.6667 1.448L2.88889 7.328C2.6129 7.53665 2.38889 7.80721 2.23461 8.11824C2.08032 8.42928 2 8.77225 2 9.12V19.76C2 20.3541 2.23413 20.9238 2.65087 21.3439C3.06762 21.764 3.63285 22 4.22222 22H10V13C10 12.4477 10.4477 12 11 12H13C13.5523 12 14 12.4477 14 13V22H19.7778C20.3671 22 20.9324 21.764 21.3491 21.3439C21.7659 20.9238 22 20.3541 22 19.76V9.12C22 8.77225 21.9197 8.42928 21.7654 8.11824C21.6111 7.80721 21.3871 7.53665 21.1111 7.328L13.3333 1.448C12.9487 1.1572 12.4808 1 12 1Z" fill="#353D4A"/>
</g>
</svg>
