<svg width="24" height="24" viewBox="0 0 24 24" fill="none" xmlns="http://www.w3.org/2000/svg">
<g id="icon/home">
<g id="Subtract">
<mask id="path-1-inside-1_3564_209" fill="white">
<path fill-rule="evenodd" clip-rule="evenodd" d="M12 1C11.5192 1 11.0513 1.1572 10.6667 1.448L2.88889 7.328C2.6129 7.53665 2.38889 7.80721 2.23461 8.11824C2.08032 8.42928 2 8.77225 2 9.12V19.76C2 20.3541 2.23413 20.9238 2.65087 21.3439C3.06762 21.764 3.63285 22 4.22222 22H10V13C10 12.4477 10.4477 12 11 12H13C13.5523 12 14 12.4477 14 13V22H19.7778C20.3671 22 20.9324 21.764 21.3491 21.3439C21.7659 20.9238 22 20.3541 22 19.76V9.12C22 8.77225 21.9197 8.42928 21.7654 8.11824C21.6111 7.80721 21.3871 7.53665 21.1111 7.328L13.3333 1.448C12.9487 1.1572 12.4808 1 12 1Z"/>
</mask>
<path d="M10.6667 1.448L9.46055 -0.147394L9.46055 -0.147393L10.6667 1.448ZM2.88889 7.328L1.68277 5.73261L1.68277 5.73261L2.88889 7.328ZM2.23461 8.11824L4.0263 9.00698L2.23461 8.11824ZM2.65087 21.3439L1.23104 22.7525L1.23104 22.7525L2.65087 21.3439ZM10 22V24H12V22H10ZM14 22H12V24H14V22ZM21.3491 21.3439L22.769 22.7525L22.769 22.7525L21.3491 21.3439ZM21.7654 8.11824L19.9737 9.00698L19.9737 9.00698L21.7654 8.11824ZM21.1111 7.328L22.3172 5.73261V5.73261L21.1111 7.328ZM13.3333 1.448L14.5395 -0.147393L14.5395 -0.147394L13.3333 1.448ZM11.8728 3.04339C11.9112 3.01432 11.9559 3 12 3V-1C11.0825 -1 10.1914 -0.699921 9.46055 -0.147394L11.8728 3.04339ZM4.09501 8.92339L11.8728 3.04339L9.46055 -0.147393L1.68277 5.73261L4.09501 8.92339ZM4.0263 9.00698C4.0433 8.97269 4.06724 8.94438 4.09501 8.92339L1.68277 5.73261C1.15855 6.12892 0.734475 6.64173 0.442917 7.22951L4.0263 9.00698ZM4 9.12C4 9.08008 4.00925 9.04133 4.0263 9.00698L0.442917 7.22951C0.15139 7.81722 0 8.46442 0 9.12H4ZM4 19.76V9.12H0V19.76H4ZM4.07071 19.9354C4.02725 19.8915 4 19.8288 4 19.76H0C0 20.8794 0.441001 21.9561 1.23104 22.7525L4.07071 19.9354ZM4.22222 20C4.16845 20 4.11363 19.9786 4.07071 19.9354L1.23104 22.7525C2.02161 23.5494 3.09725 24 4.22222 24V20ZM10 20H4.22222V24H10V20ZM12 22V13H8V22H12ZM12 13C12 13.5523 11.5523 14 11 14V10C9.34315 10 8 11.3431 8 13H12ZM11 14H13V10H11V14ZM13 14C12.4477 14 12 13.5523 12 13H16C16 11.3431 14.6569 10 13 10V14ZM12 13V22H16V13H12ZM19.7778 20H14V24H19.7778V20ZM19.9293 19.9353C19.8864 19.9786 19.8315 20 19.7778 20V24C20.9028 24 21.9784 23.5494 22.769 22.7525L19.9293 19.9353ZM20 19.76C20 19.8288 19.9727 19.8915 19.9293 19.9354L22.769 22.7525C23.559 21.9561 24 20.8794 24 19.76H20ZM20 9.12V19.76H24V9.12H20ZM19.9737 9.00698C19.9907 9.04133 20 9.08008 20 9.12H24C24 8.46443 23.8486 7.81723 23.5571 7.2295L19.9737 9.00698ZM19.905 8.92339C19.9328 8.94438 19.9567 8.97268 19.9737 9.00698L23.5571 7.22951C23.2655 6.64173 22.8415 6.12892 22.3172 5.73261L19.905 8.92339ZM12.1272 3.04339L19.905 8.92339L22.3172 5.73261L14.5395 -0.147393L12.1272 3.04339ZM12 3C12.0441 3 12.0888 3.01432 12.1272 3.04339L14.5395 -0.147394C13.8086 -0.699922 12.9175 -1 12 -1V3Z" fill="#757575" mask="url(#path-1-inside-1_3564_209)"/>
</g>
</g>
</svg>
