<svg width="114" height="114" viewBox="0 0 114 114" fill="none" xmlns="http://www.w3.org/2000/svg">
<circle cx="57" cy="57" r="57" fill="#9070CF"/>
<path d="M49.0386 62.5817V42.1817L64.8911 33.03C73.6744 27.9583 89.3994 40.4675 82.7977 51.9142" stroke="white" stroke-width="3" stroke-linejoin="round"/>
<path d="M49.0386 52.6648L66.7044 42.4648L82.5569 51.6165C91.3402 56.6882 88.3652 76.564 75.1477 76.564" stroke="white" stroke-width="3" stroke-linejoin="round"/>
<path d="M57.6231 47.707L75.289 57.907V76.2245C75.289 86.3679 56.589 93.7345 49.9873 82.2879" stroke="white" stroke-width="3" stroke-linejoin="round"/>
<path d="M66.2085 53.0332V73.0649L50.356 82.2165C41.5727 87.2882 25.8477 74.779 32.4493 63.3324" stroke="white" stroke-width="3" stroke-linejoin="round"/>
<path d="M66.2082 62.5818L48.5424 72.7818L32.6899 63.6301C23.8924 58.5443 26.8674 38.6826 40.0849 38.6826" stroke="white" stroke-width="3" stroke-linejoin="round"/>
<path d="M57.6234 67.5399L39.9575 57.3399V39.0224C39.9575 28.8791 58.6575 21.5124 65.2592 32.9591" stroke="white" stroke-width="3" stroke-linejoin="round"/>
</svg>
