<svg width="24" height="30" viewBox="0 0 24 30"  fill="#FFC700" xmlns="http://www.w3.org/2000/svg">
<path d="M11.9995 0.000488281C8.81806 0.0041745 5.76799 1.24706 3.51837 3.45652C1.26875 5.66597 0.00326496 8.66157 -0.000488281 11.7862C-0.0042987 14.3397 0.844944 16.8238 2.41696 18.8576C2.41696 18.8576 2.74424 19.2808 2.79769 19.3419L11.9995 30.0005L21.2057 19.3366C21.2537 19.2798 21.582 18.8576 21.582 18.8576L21.5831 18.8544C23.1544 16.8215 24.0032 14.3385 23.9995 11.7862C23.9957 8.66157 22.7302 5.66597 20.4806 3.45652C18.231 1.24706 15.1809 0.0041745 11.9995 0.000488281Z"/>
<circle cx="11.9995" cy="12.0005" r="7" fill="white" fill-opacity="0.2"/>
</svg>
