<svg width="20" height="20" viewBox="0 0 20 20" fill="none" xmlns="http://www.w3.org/2000/svg">
<g id="Group">
<path id="Vector" d="M3 7C3.53043 7 4.03914 6.78929 4.41421 6.41421C4.78929 6.03914 5 5.53043 5 5C5 4.46957 4.78929 3.96086 4.41421 3.58579C4.03914 3.21071 3.53043 3 3 3C2.46957 3 1.96086 3.21071 1.58579 3.58579C1.21071 3.96086 1 4.46957 1 5C1 5.53043 1.21071 6.03914 1.58579 6.41421C1.96086 6.78929 2.46957 7 3 7ZM3 7V8M3 15V14M3 15C3.53043 15 4.03914 15.2107 4.41421 15.5858C4.78929 15.9609 5 16.4696 5 17M3 15C2.46957 15 1.96086 15.2107 1.58579 15.5858C1.21071 15.9609 1 16.4696 1 17C1 17.5304 1.21071 18.0391 1.58579 18.4142C1.96086 18.7893 2.46957 19 3 19C3.53043 19 4.03914 18.7893 4.41421 18.4142C4.78929 18.0391 5 17.5304 5 17M5 17H6M15 15C15.3956 15 15.7822 15.1173 16.1111 15.3371C16.44 15.5568 16.6964 15.8692 16.8478 16.2346C16.9991 16.6001 17.0387 17.0022 16.9616 17.3902C16.8844 17.7781 16.6939 18.1345 16.4142 18.4142C16.1345 18.6939 15.7781 18.8844 15.3902 18.9616C15.0022 19.0387 14.6001 18.9991 14.2346 18.8478C13.8692 18.6964 13.5568 18.44 13.3371 18.1111C13.1173 17.7822 13 17.3956 13 17M15 15C14.4696 15 13.9609 15.2107 13.5858 15.5858C13.2107 15.9609 13 16.4696 13 17M15 15V14M13 17H12" stroke="#757575" stroke-width="2" stroke-linecap="round" stroke-linejoin="round"/>
<path id="Vector_2" d="M3 12C3.55228 12 4 11.5523 4 11C4 10.4477 3.55228 10 3 10C2.44772 10 2 10.4477 2 11C2 11.5523 2.44772 12 3 12Z" fill="#757575"/>
<path id="Vector_3" d="M9 18C9.55228 18 10 17.5523 10 17C10 16.4477 9.55228 16 9 16C8.44772 16 8 16.4477 8 17C8 17.5523 8.44772 18 9 18Z" fill="#757575"/>
<path id="Vector_4" d="M19 5C19 7.611 15 11 15 11C15 11 11 7.611 11 5C11 2.389 12.79 1 15 1C17.21 1 19 2.389 19 5Z" stroke="#757575" stroke-width="2" stroke-linecap="round" stroke-linejoin="round"/>
<path id="Vector_5" d="M15 6C15.5523 6 16 5.55228 16 5C16 4.44772 15.5523 4 15 4C14.4477 4 14 4.44772 14 5C14 5.55228 14.4477 6 15 6Z" fill="#757575"/>
</g>
</svg>
