<svg width="120" height="50" viewBox="0 0 120 50" fill="none" xmlns="http://www.w3.org/2000/svg">
<g id="&#234;&#176;&#128;&#235;&#161;&#156;&#237;&#152;&#149; &#235;&#161;&#156;&#234;&#179;&#160;">
<g id="Group 2608603">
<path id="Vector" d="M31.18 27.7003C31.18 31.6903 28.77 34.9303 25.79 34.9303H21.75L21.77 20.4903H25.81C28.77 20.4803 31.18 23.7103 31.18 27.7003Z" fill="black"/>
<path id="Vector_2" d="M9.91016 20.4902H22.2502V29.9302H9.91016V20.4902Z" fill="black"/>
<path id="Vector_3" fill-rule="evenodd" clip-rule="evenodd" d="M11.47 15.9297C11.4 16.2197 11.37 16.5197 11.37 16.8197C11.37 18.5397 12.48 19.9997 14 20.5097V29.9297H8.88C5.08 29.9297 2 26.7997 2 22.9297C2 19.0597 5.08 15.9297 8.88 15.9297H11.47Z" fill="black"/>
<path id="Vector_4" d="M11.46 11.47C11.46 9 13.38 7 15.76 7H26.93C29.3 7 31.23 9 31.23 11.47C31.23 13.94 29.31 15.94 26.93 15.94H11.47V11.47H11.46Z" fill="#9070CF"/>
<path id="Vector_5" d="M21.7698 39.3997C21.7698 41.8697 19.8498 43.8697 17.4698 43.8697H6.30977C3.92977 43.8597 2.00977 41.8597 2.00977 39.3997C2.00977 36.9297 3.92977 34.9297 6.30977 34.9297H21.7698V39.3997Z" fill="#9070CF"/>
<path id="Vector_6" d="M41.1001 25.5695V22.8495C42.5001 23.4495 44.1201 23.8995 46.0201 23.8995C48.1901 23.8995 49.1401 22.9995 49.1401 21.6495C49.1401 20.2995 48.5701 19.7995 46.7401 19.3295L45.1901 18.9295C42.7201 18.2795 41.1401 17.0795 41.1401 13.9095C41.1401 10.9595 43.0601 8.93945 47.0101 8.93945C49.4101 8.93945 50.7101 9.35945 51.7101 9.85945V12.5295C50.5601 12.1295 49.1601 11.6495 47.2401 11.6495C45.4901 11.6495 44.5401 12.3495 44.5401 13.6495C44.5401 14.8495 45.0901 15.3695 46.7101 15.7995L48.2101 16.1995C51.0101 16.9495 52.6301 18.0995 52.6301 21.2695C52.6301 24.6195 50.5601 26.6195 46.3301 26.6195C44.0301 26.6195 42.2801 26.1995 41.0801 25.5695H41.1001Z" fill="black"/>
<path id="Vector_7" d="M55.9004 9.19922H66.9004V11.8692H59.4504V16.2192H65.2704V18.8692H59.4504V23.6192H67.0704V26.3392H55.9004V9.19922Z" fill="black"/>
<path id="Vector_8" d="M69.9502 18.0697V17.4997C69.9502 11.8297 73.3202 8.92969 77.9202 8.92969C82.5202 8.92969 85.7702 11.6797 85.7702 17.4797V18.0297C85.7702 23.6997 82.4002 26.6297 77.8002 26.6297C73.2002 26.6297 69.9502 23.8297 69.9502 18.0797V18.0697ZM82.0502 18.3397V17.4897C82.0502 13.7197 80.8502 11.6197 77.8002 11.5897C75.0802 11.5897 73.7002 13.7597 73.7002 17.1597V18.0397C73.7002 21.8597 74.9502 23.9097 77.8702 23.9097C80.7902 23.9097 82.0402 21.7397 82.0402 18.3397H82.0502Z" fill="black"/>
<path id="Vector_9" d="M89.05 20.2992V9.19922H92.62V20.0992C92.62 22.9992 93.77 23.9692 96.09 23.9692C98.41 23.9692 99.36 23.0192 99.36 20.0692V9.19922H102.61V20.2192C102.61 24.5692 100.49 26.6392 95.96 26.6392C91.43 26.6392 89.04 24.5392 89.04 20.2892L89.05 20.2992Z" fill="black"/>
<path id="Vector_10" d="M106.75 9.19922H110.3V23.6192H117.35V26.3392H106.75V9.19922Z" fill="black"/>
<path id="Vector_11" d="M44.0896 39.7808V38.6808C44.5696 38.8608 45.0596 38.9808 45.6796 38.9808C46.2996 38.9808 46.5096 38.8008 46.5096 38.4808C46.5096 38.1608 46.3696 38.0708 45.8496 37.9708L45.4496 37.8908C44.5896 37.7308 44.0696 37.3508 44.0696 36.2308C44.0696 35.2108 44.6996 34.5508 46.0596 34.5508C46.9196 34.5508 47.3296 34.6808 47.6496 34.8308V35.9108C47.2696 35.7808 46.8096 35.6508 46.1996 35.6508C45.7096 35.6508 45.4596 35.8008 45.4596 36.1108C45.4596 36.3908 45.6196 36.5008 46.0896 36.6008L46.4896 36.6708C47.4396 36.8508 47.9596 37.2308 47.9596 38.3208C47.9596 39.4708 47.2196 40.0908 45.8296 40.0908C45.0796 40.0908 44.4496 39.9808 44.0596 39.7708L44.0896 39.7808Z" fill="black"/>
<path id="Vector_12" d="M58.4002 37.9106L56.7002 34.6406H58.2902L59.2502 36.6006H59.2702L60.2102 34.6406H61.5902L59.9002 37.9106V40.0106H58.4002V37.9106Z" fill="black"/>
<path id="Vector_13" d="M70.54 34.6406H72.16L73.9 37.6506H73.92V34.6406H75.2V40.0106H73.77L71.85 36.6606H71.82V40.0106H70.54V34.6406Z" fill="black"/>
<path id="Vector_14" d="M84.3203 37.4308V37.2508C84.3203 35.2908 85.4903 34.5508 86.9703 34.5508C87.6403 34.5508 88.0703 34.6308 88.3703 34.7808V35.8708C88.0503 35.7508 87.7403 35.6808 87.2703 35.6808C86.4103 35.6808 85.9203 36.1008 85.9203 37.1408V37.3808C85.9203 38.4008 86.2603 38.9608 87.2603 38.9608C87.8003 38.9608 88.1603 38.8508 88.4303 38.7408V39.8108C88.0603 39.9808 87.6103 40.1008 86.9203 40.1008C85.2903 40.1008 84.3203 39.2508 84.3203 37.4308Z" fill="black"/>
<path id="Vector_15" d="M97.2002 38.6506C97.2002 37.9906 97.6102 37.4906 98.2202 37.2406C97.6702 36.9506 97.3602 36.6106 97.3602 35.9506C97.3602 34.9906 98.1902 34.3906 99.5102 34.3906C100.83 34.3906 101.6 34.9206 101.6 35.8206C101.6 36.3506 101.32 36.8506 100.72 37.0806C101.34 37.3106 101.81 37.7406 101.81 38.4606C101.81 39.4806 100.97 40.1306 99.4802 40.1306C97.9902 40.1306 97.2102 39.5206 97.2102 38.6406L97.2002 38.6506ZM100.36 38.5306C100.36 38.1106 99.9802 37.7506 99.3202 37.6706C98.8902 37.8106 98.5202 38.1506 98.5202 38.4906C98.5202 38.9206 98.8202 39.1706 99.4302 39.1706C100.04 39.1706 100.36 38.9006 100.36 38.5306ZM100.3 35.9506C100.3 35.6206 100.07 35.3706 99.5302 35.3706C99.0502 35.3706 98.7902 35.5906 98.7902 35.9106C98.7902 36.2606 99.0102 36.5006 99.6502 36.6306C99.9502 36.5306 100.3 36.2806 100.3 35.9406V35.9506Z" fill="black"/>
<path id="Vector_16" d="M110.6 39.1709L111.33 38.3809C112.08 37.5709 112.83 36.7609 112.83 36.1909C112.83 35.6209 112.44 35.4709 111.82 35.4709C111.55 35.4709 111.08 35.6009 110.78 35.7309L110.66 34.7009C111.08 34.4809 111.65 34.3809 112.31 34.3809C113.69 34.3809 114.35 34.9209 114.35 35.9709C114.35 37.0209 113.14 38.2109 112.82 38.5409L112.45 38.9309H114.28V40.0209H110.59V39.1709H110.6Z" fill="black"/>
</g>
</g>
</svg>
