<svg width="24" height="24" viewBox="0 0 24 24" fill="none" xmlns="http://www.w3.org/2000/svg">
<path d="M5 9C5.53043 9 6.03914 8.78929 6.41421 8.41421C6.78929 8.03914 7 7.53043 7 7C7 6.46957 6.78929 5.96086 6.41421 5.58579C6.03914 5.21071 5.53043 5 5 5C4.46957 5 3.96086 5.21071 3.58579 5.58579C3.21071 5.96086 3 6.46957 3 7C3 7.53043 3.21071 8.03914 3.58579 8.41421C3.96086 8.78929 4.46957 9 5 9ZM5 9V10M5 17V16M5 17C5.53043 17 6.03914 17.2107 6.41421 17.5858C6.78929 17.9609 7 18.4696 7 19M5 17C4.46957 17 3.96086 17.2107 3.58579 17.5858C3.21071 17.9609 3 18.4696 3 19C3 19.5304 3.21071 20.0391 3.58579 20.4142C3.96086 20.7893 4.46957 21 5 21C5.53043 21 6.03914 20.7893 6.41421 20.4142C6.78929 20.0391 7 19.5304 7 19M7 19H8M17 17C17.3956 17 17.7822 17.1173 18.1111 17.3371C18.44 17.5568 18.6964 17.8692 18.8478 18.2346C18.9991 18.6001 19.0387 19.0022 18.9616 19.3902C18.8844 19.7781 18.6939 20.1345 18.4142 20.4142C18.1345 20.6939 17.7781 20.8844 17.3902 20.9616C17.0022 21.0387 16.6001 20.9991 16.2346 20.8478C15.8692 20.6964 15.5568 20.44 15.3371 20.1111C15.1173 19.7822 15 19.3956 15 19M17 17C16.4696 17 15.9609 17.2107 15.5858 17.5858C15.2107 17.9609 15 18.4696 15 19M17 17V16M15 19H14" stroke="#757575" stroke-width="2" stroke-linecap="round" stroke-linejoin="round"/>
<path d="M5 14C5.55228 14 6 13.5523 6 13C6 12.4477 5.55228 12 5 12C4.44772 12 4 12.4477 4 13C4 13.5523 4.44772 14 5 14Z" fill="#757575"/>
<path d="M11 20C11.5523 20 12 19.5523 12 19C12 18.4477 11.5523 18 11 18C10.4477 18 10 18.4477 10 19C10 19.5523 10.4477 20 11 20Z" fill="#757575"/>
<path d="M21 7C21 9.611 17 13 17 13C17 13 13 9.611 13 7C13 4.389 14.79 3 17 3C19.21 3 21 4.389 21 7Z" stroke="#757575" stroke-width="2" stroke-linecap="round" stroke-linejoin="round"/>
<path d="M17 8C17.5523 8 18 7.55228 18 7C18 6.44772 17.5523 6 17 6C16.4477 6 16 6.44772 16 7C16 7.55228 16.4477 8 17 8Z" fill="#757575"/>
</svg>
