<svg width="20" height="20" viewBox="0 0 20 20" fill="none" xmlns="http://www.w3.org/2000/svg">
<g id="Group">
<path id="Vector" d="M3 7C3.53043 7 4.03914 6.78929 4.41421 6.41421C4.78929 6.03914 5 5.53043 5 5C5 4.46957 4.78929 3.96086 4.41421 3.58579C4.03914 3.21071 3.53043 3 3 3C2.46957 3 1.96086 3.21071 1.58579 3.58579C1.21071 3.96086 1 4.46957 1 5C1 5.53043 1.21071 6.03914 1.58579 6.41421C1.96086 6.78929 2.46957 7 3 7ZM3 7V8M3 15V14" stroke="#353D4A" stroke-width="2" stroke-linecap="round" stroke-linejoin="round"/>
<path id="Vector_2" d="M5 17C5 16.4696 4.78929 15.9609 4.41421 15.5858C4.03914 15.2107 3.53043 15 3 15C2.46957 15 1.96086 15.2107 1.58579 15.5858C1.21071 15.9609 1 16.4696 1 17C1 17.5304 1.21071 18.0391 1.58579 18.4142C1.96086 18.7893 2.46957 19 3 19C3.53043 19 4.03914 18.7893 4.41421 18.4142C4.78929 18.0391 5 17.5304 5 17ZM5 17H6M15 15C15.3956 15 15.7822 15.1173 16.1111 15.3371C16.44 15.5568 16.6964 15.8692 16.8478 16.2346C16.9991 16.6001 17.0387 17.0022 16.9616 17.3902C16.8844 17.7781 16.6939 18.1345 16.4142 18.4142C16.1345 18.6939 15.7781 18.8844 15.3902 18.9616C15.0022 19.0387 14.6001 18.9991 14.2346 18.8478C13.8692 18.6964 13.5568 18.44 13.3371 18.1111C13.1173 17.7822 13 17.3956 13 17M15 15C14.4696 15 13.9609 15.2107 13.5858 15.5858C13.2107 15.9609 13 16.4696 13 17M15 15V14M13 17H12" stroke="#353D4A" stroke-width="2" stroke-linecap="round" stroke-linejoin="round"/>
<path id="Vector_3" d="M3 12C3.55228 12 4 11.5523 4 11C4 10.4477 3.55228 10 3 10C2.44772 10 2 10.4477 2 11C2 11.5523 2.44772 12 3 12Z" fill="#353D4A"/>
<path id="Vector_4" d="M9 18C9.55228 18 10 17.5523 10 17C10 16.4477 9.55228 16 9 16C8.44772 16 8 16.4477 8 17C8 17.5523 8.44772 18 9 18Z" fill="#353D4A"/>
<path id="Vector_5" fill-rule="evenodd" clip-rule="evenodd" d="M15 11L14.353 11.763L14.352 11.761L14.348 11.759L14.338 11.749L14.299 11.716L14.162 11.595C13.4785 10.9823 12.8361 10.3252 12.239 9.628C11.714 9.011 11.167 8.285 10.748 7.519C10.335 6.766 10 5.892 10 5C10 3.453 10.538 2.175 11.49 1.289C12.431 0.413 13.69 0 15 0C16.31 0 17.569 0.413 18.51 1.289C19.462 2.175 20 3.453 20 5C20 5.892 19.665 6.766 19.252 7.52C18.832 8.285 18.287 9.011 17.762 9.628C17.1247 10.3714 16.436 11.0691 15.701 11.716L15.663 11.749L15.652 11.759L15.648 11.761V11.762H15.647L15 11ZM15 11L15.646 11.763C15.4654 11.9158 15.2365 11.9997 15 11.9997C14.7635 11.9997 14.5336 11.9158 14.353 11.763L15 11ZM15 6C15.2652 6 15.5196 5.89464 15.7071 5.70711C15.8946 5.51957 16 5.26522 16 5C16 4.73478 15.8946 4.48043 15.7071 4.29289C15.5196 4.10536 15.2652 4 15 4C14.7348 4 14.4804 4.10536 14.2929 4.29289C14.1054 4.48043 14 4.73478 14 5C14 5.26522 14.1054 5.51957 14.2929 5.70711C14.4804 5.89464 14.7348 6 15 6Z" fill="#353D4A"/>
</g>
</svg>
