<svg width="24" height="24" viewBox="0 0 24 24" fill="none" xmlns="http://www.w3.org/2000/svg">
<path d="M12.1143 11.2286C14.3865 11.2286 16.2286 9.38654 16.2286 7.11429C16.2286 4.84203 14.3865 3 12.1143 3C9.84203 3 8 4.84203 8 7.11429C8 9.38654 9.84203 11.2286 12.1143 11.2286Z" stroke="#757575" stroke-width="2" stroke-linecap="round" stroke-linejoin="round"/>
<path fill-rule="evenodd" clip-rule="evenodd" d="M5.09623 20.0008H19.3609C18.8485 17.3306 16.3101 14.8008 12.2286 14.8008C8.14702 14.8008 5.60861 17.3306 5.09623 20.0008ZM3 21.0008C3 16.8012 6.63092 12.8008 12.2286 12.8008C17.8262 12.8008 21.4571 16.8012 21.4571 21.0008C21.4571 21.5531 21.0094 22.0008 20.4571 22.0008H4C3.44772 22.0008 3 21.5531 3 21.0008Z" fill="#757575"/>
</svg>
