<svg width="35" height="35" viewBox="0 0 35 35" fill="#000" xmlns="http://www.w3.org/2000/svg">
<path d="M29.5312 8.75C29.5312 5.12969 27.0813 2.1875 24.0625 2.1875C21.0438 2.1875 18.5938 5.12969 18.5938 8.75C18.5938 11.9219 20.475 14.5688 22.9688 15.1813V17.6859C22.3287 17.9122 21.7747 18.3314 21.3829 18.8858C20.9911 19.4402 20.7809 20.1024 20.7812 20.7812V29.5312C20.7812 30.4015 21.127 31.2361 21.7423 31.8514C22.3577 32.4668 23.1923 32.8125 24.0625 32.8125C24.9327 32.8125 25.7673 32.4668 26.3827 31.8514C26.998 31.2361 27.3438 30.4015 27.3438 29.5312V20.7812C27.3441 20.1024 27.1339 19.4402 26.7421 18.8858C26.3503 18.3314 25.7963 17.9122 25.1562 17.6859V15.1813C27.65 14.5688 29.5312 11.9219 29.5312 8.75ZM20.7812 8.75C20.7812 6.33281 22.2578 4.375 24.0625 4.375C25.8672 4.375 27.3438 6.33281 27.3438 8.75C27.3438 11.1672 25.8672 13.125 24.0625 13.125C22.2578 13.125 20.7812 11.1672 20.7812 8.75ZM25.1562 29.5312C25.1562 29.8213 25.041 30.0995 24.8359 30.3046C24.6308 30.5098 24.3526 30.625 24.0625 30.625C23.7724 30.625 23.4942 30.5098 23.2891 30.3046C23.084 30.0995 22.9688 29.8213 22.9688 29.5312V20.7812C22.9688 20.4912 23.084 20.213 23.2891 20.0079C23.4942 19.8027 23.7724 19.6875 24.0625 19.6875C24.3526 19.6875 24.6308 19.8027 24.8359 20.0079C25.041 20.213 25.1562 20.4912 25.1562 20.7812V29.5312Z"/>
<path d="M15.3125 2.1875C15.0224 2.1875 14.7442 2.30273 14.5391 2.50785C14.334 2.71297 14.2188 2.99117 14.2188 3.28125V8.75H12.0312V3.28125C12.0312 2.99117 11.916 2.71297 11.7109 2.50785C11.5058 2.30273 11.2276 2.1875 10.9375 2.1875C10.6474 2.1875 10.3692 2.30273 10.1641 2.50785C9.95898 2.71297 9.84375 2.99117 9.84375 3.28125V8.75H7.65625V3.28125C7.65625 2.99117 7.54102 2.71297 7.3359 2.50785C7.13078 2.30273 6.85258 2.1875 6.5625 2.1875C6.27242 2.1875 5.99422 2.30273 5.7891 2.50785C5.58398 2.71297 5.46875 2.99117 5.46875 3.28125V12.0312C5.46875 12.9015 5.81445 13.7361 6.42981 14.3514C7.04516 14.9668 7.87976 15.3125 8.75 15.3125H9.84375V17.6859C9.20374 17.9122 8.64966 18.3314 8.25787 18.8858C7.86609 19.4402 7.65589 20.1024 7.65625 20.7812V29.5312C7.65625 30.4015 8.00195 31.2361 8.61731 31.8514C9.23266 32.4668 10.0673 32.8125 10.9375 32.8125C11.8077 32.8125 12.6423 32.4668 13.2577 31.8514C13.873 31.2361 14.2188 30.4015 14.2188 29.5312V20.7812C14.2191 20.1024 14.0089 19.4402 13.6171 18.8858C13.2253 18.3314 12.6713 17.9122 12.0312 17.6859V15.3125H13.125C13.9952 15.3125 14.8298 14.9668 15.4452 14.3514C16.0605 13.7361 16.4062 12.9015 16.4062 12.0312V3.28125C16.4062 2.99117 16.291 2.71297 16.0859 2.50785C15.8808 2.30273 15.6026 2.1875 15.3125 2.1875ZM12.0312 29.5312C12.0312 29.8213 11.916 30.0995 11.7109 30.3046C11.5058 30.5098 11.2276 30.625 10.9375 30.625C10.6474 30.625 10.3692 30.5098 10.1641 30.3046C9.95898 30.0995 9.84375 29.8213 9.84375 29.5312V20.7812C9.84375 20.4912 9.95898 20.213 10.1641 20.0079C10.3692 19.8027 10.6474 19.6875 10.9375 19.6875C11.2276 19.6875 11.5058 19.8027 11.7109 20.0079C11.916 20.213 12.0312 20.4912 12.0312 20.7812V29.5312ZM14.2188 12.0312C14.2188 12.3213 14.1035 12.5995 13.8984 12.8046C13.6933 13.0098 13.4151 13.125 13.125 13.125H8.75C8.45992 13.125 8.18172 13.0098 7.9766 12.8046C7.77148 12.5995 7.65625 12.3213 7.65625 12.0312V10.9375H14.2188V12.0312Z"/>
</svg>
