<svg width="35" height="35" viewBox="0 0 35 35" fill="#000" xmlns="http://www.w3.org/2000/svg">
<path d="M33.9746 8.33984H28.7394L28.7109 6.14544C28.7072 2.75618 25.9487 0 22.5586 0C19.1662 0 16.4062 2.75994 16.4062 6.15234C16.4062 6.15679 16.4062 6.16123 16.4063 6.16567L16.4346 8.33984H11.2109C10.6446 8.33984 10.1855 8.79895 10.1855 9.36523V16.543H1.02539C0.459102 16.543 0 17.0021 0 17.5684V31.9238C0 33.62 1.37997 35 3.07617 35H19.6191H21.6699H31.9238C33.62 35 35 33.62 35 31.9238V9.36523C35 8.79895 34.5409 8.33984 33.9746 8.33984ZM22.5586 2.05078C24.8202 2.05078 26.6602 3.89074 26.6602 6.15234C26.6602 6.15679 26.6602 6.16123 26.6602 6.16567L26.6885 8.33984H18.4855L18.457 6.14612C18.4604 3.88732 20.299 2.05078 22.5586 2.05078ZM22.6953 31.9238C22.6953 32.4892 22.2353 32.9492 21.6699 32.9492H19.6191H3.07617C2.51077 32.9492 2.05078 32.4892 2.05078 31.9238V18.5938H22.6953V31.9238ZM32.9492 31.9238C32.9492 32.4892 32.4892 32.9492 31.9238 32.9492H24.5697C24.6835 32.6283 24.7461 32.2833 24.7461 31.9238V17.5684C24.7461 17.0021 24.287 16.543 23.7207 16.543H12.2363V10.3906H16.4612L16.4747 11.4293C16.4819 11.9911 16.9396 12.4414 17.4997 12.4414C17.5042 12.4414 17.5088 12.4414 17.5133 12.4413C18.0796 12.434 18.5327 11.969 18.5253 11.4027L18.5121 10.3906H26.7151L26.7286 11.4293C26.7358 11.9911 27.1935 12.4414 27.7536 12.4414C27.7581 12.4414 27.7627 12.4414 27.7672 12.4413C28.3335 12.434 28.7866 11.969 28.7792 11.4027L28.766 10.3906H32.9492V31.9238Z"/>
</svg>
