<svg width="30" height="30" viewBox="0 0 30 30" fill="none" xmlns="http://www.w3.org/2000/svg">
<g id="icon_main">
<path id="Vector" d="M23 23L18.9504 18.9504M18.9504 18.9504C19.6004 18.3003 20.116 17.5286 20.4678 16.6793C20.8196 15.83 21.0007 14.9197 21.0007 14.0004C21.0007 13.0811 20.8196 12.1708 20.4678 11.3214C20.116 10.4721 19.6004 9.7004 18.9504 9.05036C18.3003 8.40031 17.5286 7.88467 16.6793 7.53287C15.83 7.18107 14.9197 7 14.0004 7C13.0811 7 12.1708 7.18107 11.3214 7.53287C10.4721 7.88467 9.7004 8.40031 9.05036 9.05036C7.73754 10.3632 7 12.1437 7 14.0004C7 15.857 7.73754 17.6375 9.05036 18.9504C10.3632 20.2632 12.1437 21.0007 14.0004 21.0007C15.857 21.0007 17.6375 20.2632 18.9504 18.9504Z" stroke="black" stroke-width="2" stroke-linecap="round" stroke-linejoin="round"/>
</g>
</svg>
