<svg width="169" height="169" viewBox="0 0 169 169" fill="none" xmlns="http://www.w3.org/2000/svg">
<g id="&#236;&#132;&#184;&#235;&#161;&#156;&#237;&#152;&#149; &#235;&#161;&#156;&#234;&#179;&#160;">
<g id="Group 2608604">
<path id="Vector" d="M116.984 47.641C116.984 56.4665 111.651 63.6209 105.079 63.6209H96.1407L96.1783 31.6986H105.117C111.67 31.6611 117.003 38.8154 117.003 47.641H116.984Z" fill="#040000"/>
<path id="Vector_2" d="M69.9471 31.6985H97.2313V52.5794H69.9471V31.6985Z" fill="#040000"/>
<path id="Vector_3" fill-rule="evenodd" clip-rule="evenodd" d="M73.4013 21.6311C73.2511 22.2695 73.176 22.9268 73.176 23.6028C73.176 27.4147 75.6171 30.6444 78.9971 31.7523V52.5769H67.6741C59.2804 52.5769 52.4641 45.6479 52.4641 37.104C52.4641 28.5601 59.2804 21.6311 67.6741 21.6311H73.4013Z" fill="#040000"/>
<path id="Vector_4" d="M73.3837 11.7548C73.3837 6.29046 77.6274 1.87769 82.8852 1.87769H107.578C112.817 1.87769 117.08 6.30924 117.08 11.7548C117.08 17.2191 112.836 21.6319 107.578 21.6319H73.3837V11.7548Z" fill="#9070CF"/>
<path id="Vector_5" d="M96.1783 73.4977C96.1783 78.962 91.9345 83.3748 86.6768 83.3748H61.984C56.745 83.3748 52.4824 78.9433 52.4824 73.4977C52.4824 68.0334 56.7262 63.6206 61.984 63.6206H96.1783V73.4977Z" fill="#9070CF"/>
<path id="Vector_6" d="M13.182 138.657V133.549C15.8109 134.676 18.8529 135.521 22.4206 135.521C26.4954 135.521 28.2793 133.831 28.2793 131.296C28.2793 128.761 27.209 127.822 23.7726 126.94L20.8621 126.188C16.224 124.968 13.2571 122.715 13.2571 116.762C13.2571 111.223 16.8624 107.429 24.2796 107.429C28.7863 107.429 31.2274 108.218 33.1052 109.157V114.171C30.9457 113.42 28.3169 112.518 24.7115 112.518C21.4254 112.518 19.6415 113.833 19.6415 116.274C19.6415 118.527 20.6743 119.504 23.7163 120.311L26.533 121.062C31.7907 122.47 34.8327 124.63 34.8327 130.582C34.8327 136.873 30.9457 140.629 23.0027 140.629C18.6839 140.629 15.3977 139.84 13.1444 138.657H13.182Z" fill="#040000"/>
<path id="Vector_7" d="M40.9736 107.917H61.6292V112.931H47.6397V121.099H58.5684V126.076H47.6397V134.995H61.9484V140.103H40.9736V107.899V107.917Z" fill="#040000"/>
<path id="Vector_8" d="M67.3542 124.592V123.522C67.3542 112.875 73.6824 107.429 82.3201 107.429C90.9579 107.429 97.0607 112.593 97.0607 123.484V124.517C97.0607 135.164 90.7326 140.666 82.0948 140.666C73.457 140.666 67.3542 135.408 67.3542 124.611V124.592ZM90.0754 125.099V123.503C90.0754 116.424 87.822 112.481 82.0948 112.424C76.9872 112.424 74.3959 116.499 74.3959 122.884V124.536C74.3959 131.709 76.7431 135.559 82.2262 135.559C87.7094 135.559 90.0566 131.484 90.0566 125.099H90.0754Z" fill="#040000"/>
<path id="Vector_9" d="M103.219 128.76V107.917H109.923V128.385C109.923 133.83 112.083 135.652 116.439 135.652C120.795 135.652 122.579 133.868 122.579 128.328V107.917H128.682V128.61C128.682 136.778 124.701 140.665 116.195 140.665C107.689 140.665 103.201 136.722 103.201 128.742L103.219 128.76Z" fill="#040000"/>
<path id="Vector_10" d="M136.458 107.917H143.124V134.995H156.362V140.103H136.458V107.899V107.917Z" fill="#040000"/>
<path id="Vector_11" d="M18.8157 165.339V163.273C19.7171 163.611 20.6372 163.837 21.8014 163.837C22.9656 163.837 23.36 163.499 23.36 162.898C23.36 162.297 23.0971 162.128 22.1206 161.94L21.3695 161.79C19.7546 161.489 18.7782 160.776 18.7782 158.673C18.7782 156.757 19.9612 155.518 22.515 155.518C24.1298 155.518 24.8997 155.762 25.5006 156.044V158.072C24.7871 157.828 23.9233 157.584 22.7778 157.584C21.8577 157.584 21.3883 157.865 21.3883 158.447C21.3883 158.973 21.6887 159.18 22.5713 159.368L23.3224 159.499C25.1063 159.837 26.0827 160.551 26.0827 162.597C26.0827 164.757 24.6932 165.921 22.0831 165.921C20.6747 165.921 19.4917 165.714 18.7594 165.32L18.8157 165.339Z" fill="#040000"/>
<path id="Vector_12" d="M45.6659 161.827L42.4736 155.687H45.4593L47.262 159.367H47.2995L49.0646 155.687H51.656L48.4825 161.827V165.77H45.6659V161.827Z" fill="#040000"/>
<path id="Vector_13" d="M68.4618 155.687H71.5038L74.7711 161.339H74.8087V155.687H77.2122V165.77H74.527L70.9217 159.48H70.8653V165.77H68.4618V155.687Z" fill="#040000"/>
<path id="Vector_14" d="M94.34 160.926V160.588C94.34 156.908 96.537 155.518 99.3161 155.518C100.574 155.518 101.382 155.668 101.945 155.95V157.997C101.344 157.771 100.762 157.64 99.8794 157.64C98.2645 157.64 97.3444 158.429 97.3444 160.382V160.832C97.3444 162.748 97.9829 163.799 99.8606 163.799C100.875 163.799 101.551 163.593 102.058 163.386V165.395C101.363 165.714 100.518 165.94 99.2222 165.94C96.1614 165.94 94.34 164.344 94.34 160.926Z" fill="#040000"/>
<path id="Vector_15" d="M118.524 163.217C118.524 161.977 119.294 161.038 120.439 160.569C119.406 160.024 118.824 159.386 118.824 158.147C118.824 156.344 120.383 155.217 122.861 155.217C125.34 155.217 126.786 156.212 126.786 157.902C126.786 158.898 126.26 159.837 125.133 160.268C126.298 160.7 127.18 161.508 127.18 162.86C127.18 164.775 125.603 165.996 122.805 165.996C120.007 165.996 118.542 164.85 118.542 163.198L118.524 163.217ZM124.457 162.991C124.457 162.203 123.744 161.527 122.505 161.376C121.697 161.639 121.002 162.278 121.002 162.916C121.002 163.724 121.566 164.193 122.711 164.193C123.857 164.193 124.457 163.686 124.457 162.991ZM124.345 158.147C124.345 157.527 123.913 157.057 122.899 157.057C121.998 157.057 121.509 157.471 121.509 158.072C121.509 158.729 121.922 159.179 123.124 159.424C123.688 159.236 124.345 158.766 124.345 158.128V158.147Z" fill="#040000"/>
<path id="Vector_16" d="M143.687 164.212L145.058 162.728C146.466 161.207 147.875 159.686 147.875 158.616C147.875 157.546 147.142 157.264 145.978 157.264C145.471 157.264 144.588 157.508 144.025 157.752L143.8 155.818C144.588 155.405 145.659 155.217 146.898 155.217C149.489 155.217 150.729 156.231 150.729 158.203C150.729 160.175 148.457 162.409 147.856 163.029L147.161 163.761H150.597V165.808H143.668V164.212H143.687Z" fill="#040000"/>
</g>
</g>
</svg>
