<svg width="147" height="182" viewBox="0 0 147 182" fill="none" xmlns="http://www.w3.org/2000/svg">
<g id="&#236;&#136;&#152;&#236;&#160;&#149;_&#235;&#161;&#156;&#234;&#179;&#160;">
<path id="Vector" d="M146.495 102.479C146.495 121.747 134.511 137.121 119.532 137.121H99.5596V67.7871H119.532C134.511 67.7871 146.495 83.2113 146.495 102.429V102.479Z" fill="black"/>
<path id="Vector_2" d="M40.647 67.8354H102.062V114.757H40.647V67.8354Z" fill="black"/>
<path id="Vector_3" fill-rule="evenodd" clip-rule="evenodd" d="M48.1366 44.876C47.6373 46.3735 47.6373 47.871 47.6373 49.3685C47.6373 57.8543 53.1297 65.3417 60.6194 67.8375V114.759H35.1545C16.1808 114.759 0.702148 99.2849 0.702148 79.8175C0.702148 60.3501 16.1808 44.876 35.1545 44.876H48.1366Z" fill="black"/>
<path id="Vector_4" d="M48.1367 22.4624C48.1367 9.98329 57.6236 0 69.607 0H125.53C137.513 0 147 9.98329 147 22.4624C147 34.9415 137.513 44.9248 125.53 44.9248H48.1367V22.4624Z" fill="#9070CF"/>
<path id="Vector_5" d="M99.5624 159.538C99.5624 172.017 89.9757 182 77.8424 182H21.72C9.58675 182 0 172.017 0 159.538C0 147.058 9.58675 137.075 21.72 137.075H99.5624V159.538Z" fill="#9070CF"/>
</g>
</svg>
